<svg width="24" height="24" viewBox="0 0 24 24" fill="none" xmlns="http://www.w3.org/2000/svg">
<path fill-rule="evenodd" clip-rule="evenodd" d="M10.1693 2.20161C10.8641 0.599464 13.1361 0.599462 13.8309 2.20161L15.9325 7.04812L21.1912 7.54922C22.9297 7.71487 23.6318 9.87574 22.3227 11.0316L18.3629 14.528L19.5113 19.6842C19.891 21.3887 18.0528 22.7242 16.5491 21.8364L12.0001 19.1508L7.45116 21.8364C5.94738 22.7242 4.10924 21.3887 4.48889 19.6842L5.63736 14.528L1.67749 11.0316C0.368449 9.87574 1.07056 7.71487 2.80898 7.54922L8.06771 7.04812L10.1693 2.20161ZM14.1017 7.84201L12.0001 2.9955L9.8985 7.84201C9.60935 8.50881 8.98052 8.96568 8.257 9.03462L2.99827 9.53572L6.95814 13.0321C7.50295 13.5132 7.74314 14.2524 7.58513 14.9618L6.43667 20.118L10.9856 17.4324C11.6115 17.0629 12.3887 17.0629 13.0146 17.4324L17.5635 20.118L16.4151 14.9618C16.2571 14.2524 16.4973 13.5132 17.0421 13.0321L21.0019 9.53572L15.7432 9.03462C15.0197 8.96568 14.3909 8.50881 14.1017 7.84201Z" fill="#020981"/>
</svg>
